<?xml version="1.0" encoding="UTF-8"?><svg class="logo" width="24" height="24" fill="none" stroke-linecap="round" stroke-linejoin="round" version="1.1" viewBox="0 0 24 24" xml:space="preserve" xmlns="http://www.w3.org/2000/svg"><style>.logo{stroke:#000000;}.stars{stroke:#e2b604;}@media(prefers-color-scheme:dark){.logo{stroke:#dddddd;}}</style><circle cx="10.854" cy="10.854" r="9.5029" stroke-width="2.3757"/><path d="m22.733 22.733-5.1078-5.1078" stroke-width="2.3757"/><g class="stars" transform="matrix(.56785 0 0 .56785 4.0154 4.0721)" fill="none" stroke-linecap="round" stroke-linejoin="round" stroke-width="3"><path d="m9.937 15.5a2 2 0 0 0-1.437-1.437l-6.135-1.582a0.5 0.5 0 0 1 0-0.962l6.135-1.583a2 2 0 0 0 1.437-1.436l1.582-6.135a0.5 0.5 0 0 1 0.963 0l1.581 6.135a2 2 0 0 0 1.437 1.437l6.135 1.581a0.5 0.5 0 0 1 0 0.964l-6.135 1.581a2 2 0 0 0-1.437 1.437l-1.582 6.135a0.5 0.5 0 0 1-0.963 0z"/><path d="m20 3v4"/><path d="m22 5h-4"/><path d="m4 17v2"/><path d="m5 18h-2"/></g></svg>